<svg width="16" height="11" viewBox="0 0 16 11" fill="none" xmlns="http://www.w3.org/2000/svg">
<path d="M5.76128 8.76246C5.68203 9.31866 5.40476 9.82758 4.9804 10.1958C4.55604 10.5639 4.01309 10.7666 3.45128 10.7666C2.88947 10.7666 2.34652 10.5639 1.92216 10.1958C1.4978 9.82758 1.22053 9.31866 1.14128 8.76246H0.451279V0.762461C0.451279 0.58565 0.521517 0.416081 0.646541 0.291057C0.771565 0.166033 0.941134 0.0957947 1.11795 0.0957947H10.4513C10.6281 0.0957947 10.7977 0.166033 10.9227 0.291057C11.0477 0.416081 11.1179 0.58565 11.1179 0.762461V2.09579H13.1179L15.1179 4.79979V8.76246H13.7613C13.682 9.31866 13.4048 9.82758 12.9804 10.1958C12.556 10.5639 12.0131 10.7666 11.4513 10.7666C10.8895 10.7666 10.3465 10.5639 9.92216 10.1958C9.4978 9.82758 9.22053 9.31866 9.14128 8.76246H5.76128ZM9.78461 1.42913H1.78461V6.79579C2.04765 6.52726 2.37168 6.32625 2.72911 6.20987C3.08655 6.0935 3.46681 6.0652 3.83753 6.12739C4.20825 6.18958 4.55846 6.34042 4.85835 6.56706C5.15824 6.79371 5.39893 7.08945 5.55995 7.42913H9.34261C9.45461 7.19379 9.60461 6.97979 9.78461 6.79579V1.42913ZM11.1179 5.42913H13.7846V5.23913L12.4459 3.42913H11.1179V5.42913ZM11.4513 9.42913C11.7166 9.42913 11.971 9.32374 12.1586 9.13614C12.3462 8.94854 12.4516 8.6941 12.4516 8.42879C12.4516 8.16349 12.3462 7.90905 12.1586 7.72145C11.971 7.53385 11.7166 7.42846 11.4513 7.42846C11.186 7.42846 10.9315 7.53385 10.7439 7.72145C10.5563 7.90905 10.4509 8.16349 10.4509 8.42879C10.4509 8.6941 10.5563 8.94854 10.7439 9.13614C10.9315 9.32374 11.186 9.42913 11.4513 9.42913ZM4.45128 8.42913C4.45128 8.29781 4.42541 8.16777 4.37516 8.04644C4.3249 7.92512 4.25124 7.81488 4.15839 7.72202C4.06553 7.62916 3.95529 7.5555 3.83396 7.50525C3.71264 7.45499 3.5826 7.42913 3.45128 7.42913C3.31996 7.42913 3.18992 7.45499 3.0686 7.50525C2.94727 7.5555 2.83703 7.62916 2.74417 7.72202C2.65131 7.81488 2.57765 7.92512 2.5274 8.04644C2.47714 8.16777 2.45128 8.29781 2.45128 8.42913C2.45128 8.69434 2.55664 8.9487 2.74417 9.13623C2.93171 9.32377 3.18606 9.42913 3.45128 9.42913C3.7165 9.42913 3.97085 9.32377 4.15839 9.13623C4.34592 8.9487 4.45128 8.69434 4.45128 8.42913Z" fill="#0E1118"/>
</svg>
